<svg xmlns="http://www.w3.org/2000/svg" width="300" height="500" viewBox="0 0 300 500"><style type="text/css">.st0{fill:#F6B221;stroke:#F6B221;stroke-width:0.5;stroke-miterlimit:10;} .st1{fill:#FFFFFF;stroke:#FCFBFA;stroke-width:0.5;stroke-miterlimit:10;} .st2{fill:#FFFFFF;stroke:#FFFFFF;stroke-width:0.5;stroke-miterlimit:10;} .st3{fill-rule:evenodd;clip-rule:evenodd;fill:#F5A81F;} .st4{fill:#FFFFFF;stroke:#FCFCFC;stroke-width:0.3;stroke-miterlimit:10;} .st5{fill:#FFFFFF;stroke:#FCFCFC;stroke-width:0.5;stroke-miterlimit:10;} .st6{fill:#FFFFFF;}</style><path class="st0" d="M14.5 29.3h6.1c3.4 0 5.7 1.4 5.7 4.8 0 2.4-1.5 3.9-3.6 4.4v.1c1.5.3 2.2 1.3 2.8 3.6.6 2.1 1.1 3.8 1.8 5.8h-1.6c-.5-1.6-1.2-4.4-1.6-5.7-.7-2.4-1.5-3-4.2-3h-3.9v8.7h-1.5v-18.7zm1.5 8.6h4.2c2.8 0 4.5-1.2 4.5-3.7 0-2.9-2-3.6-4.4-3.6h-4.3v7.3zm25.6 3.5h-10.2c.1 3.1 1.9 5.7 5.4 5.7 1.3 0 2.7-.2 3.7-.7l.3 1.2c-1.1.4-2.6.7-4 .7-4.5 0-6.8-3.1-6.8-7.3 0-3.9 2.1-7.1 6.1-7.1 3.9 0 5.6 2.8 5.6 6.7v.8zm-1.4-1.3c0-2.9-1.4-5-4.2-5-3.1 0-4.5 2.5-4.6 5.1h8.9v-.1zm13.7-1.2c0-2.6-1.3-3.9-3.8-3.9-1.1 0-2.5.3-3.6.8l-.3-1.3c1.1-.4 2.6-.8 4-.8 3.3 0 5.2 1.6 5.2 5v5.9c0 1 .1 2.4.3 3.3h-1.4c-.2-.8-.2-1.8-.3-2.6-.7 1.6-2.2 3-4.8 3-2.3 0-4.4-1.3-4.4-4.1 0-3.8 3.9-4.6 9.1-4.6v-.7zm-.6 1.8c-3.8 0-7 .6-7 3.4 0 1.8 1 2.9 3 2.9 3.2 0 4.6-2.5 4.6-5.1v-1.3h-.6zm16.7-12h1.5v19.3h-1.5v-2.7c-.9 1.8-2.6 3-4.7 3-3.6 0-5.7-3.2-5.7-7.3s2.1-7.2 5.7-7.2c2.1 0 3.7 1.2 4.6 2.9h.1v-8zm-4.6 18.4c2.9 0 4.6-2.5 4.6-6s-1.8-6-4.6-6c-2.9 0-4.4 2.7-4.4 6 .1 3.3 1.6 6 4.4 6zm15.2-1l4.5-11.9h1.6l-7.5 18.9h-1.6l2.1-5.3-5.4-13.6h1.7l4.6 11.9zm14.3-11.9h2.6v-3.4h1.5v3.4h3.4v1.2h-3.4v9.2c0 1.9.4 2.3 2 2.3.6 0 1 0 1.5-.1v1.2c-.4.1-1.2.2-1.8.2-2.4 0-3.1-1-3.1-3.5v-9.3h-2.6v-1.2zm16.3 14.1c-3.9 0-6.2-2.9-6.2-7.3s2.3-7.2 6.2-7.2c3.9 0 6.2 2.8 6.2 7.2s-2.3 7.3-6.2 7.3zm0-13.2c-3.2 0-4.7 2.6-4.7 6s1.5 6 4.7 6 4.7-2.6 4.7-6-1.5-6-4.7-6zm-95.2 25.3v1.8h-1.7v-1.8h1.7zm-.1 5.2v13.8h-1.5v-13.8h1.5zm6.5 0v2.4c.8-1.7 2.5-2.7 4.4-2.7 2.2 0 3.6.9 4.2 2.6h.1c.9-1.8 2.5-2.6 4.5-2.6 3.2 0 4.7 2.1 4.7 5.1v9h-1.5v-8.4c0-2.6-.8-4.5-3.6-4.5-1.9 0-3.9 1.3-3.9 4.2v8.8h-1.5v-8.7c0-2.6-.7-4.2-3.4-4.2-2 0-4 1.4-4 4.7v8.2h-1.5v-13.9h1.5zm24.3 18.9h-1.5v-18.9h1.4v2.7h.1c.8-1.7 2.5-3 4.7-3 3.6 0 5.7 3.2 5.7 7.2 0 4.1-2.1 7.2-5.8 7.2-2.1 0-3.7-1.2-4.6-2.9h-.1v7.7zm4.5-18c-2.9 0-4.6 2.5-4.6 6s1.8 6 4.6 6c2.9 0 4.4-2.7 4.4-6s-1.5-6-4.4-6zm16.3.1c-.3-.1-.7-.1-1.1-.1-2.1 0-3.6 1.6-3.6 4.8v8.1h-1.5v-13.8h1.4v2.3h.1c.6-1.7 2-2.6 3.8-2.6.3 0 .7 0 1 .1l-.1 1.2zm13.9 6.3h-10.3c.1 3.1 1.9 5.7 5.4 5.7 1.3 0 2.7-.2 3.7-.7l.3 1.2c-1.1.4-2.6.7-4 .7-4.5 0-6.8-3.1-6.8-7.3 0-3.9 2.1-7.1 6.1-7.1 3.9 0 5.6 2.8 5.6 6.7v.8zm-1.4-1.4c0-2.9-1.4-5-4.2-5-3.1 0-4.5 2.5-4.6 5.1h8.8v-.1zm12.7-4.3c-1-.5-2.2-.7-3.3-.7-1.6 0-3.1.6-3.1 2.3 0 1.5 1 2.1 3.1 2.9 2.5.9 4.3 1.9 4.3 4.2 0 2.7-2.2 3.8-4.7 3.8-1.5 0-3.2-.4-4.4-1l.4-1.2c1.2.6 2.8 1 4.1 1 1.9 0 3.1-.7 3.1-2.5 0-1.6-1.4-2.3-3.5-3.1-2.5-.9-4-1.9-4-3.9 0-2.5 2.3-3.7 4.6-3.7 1.3 0 2.7.2 3.7.8l-.3 1.1zm12.3 0c-1-.5-2.2-.7-3.3-.7-1.6 0-3.1.6-3.1 2.3 0 1.5 1 2.1 3.1 2.9 2.5.9 4.3 1.9 4.3 4.2 0 2.7-2.2 3.8-4.7 3.8-1.5 0-3.2-.4-4.4-1l.4-1.2c1.2.6 2.8 1 4.1 1 1.9 0 3.1-.7 3.1-2.5 0-1.6-1.4-2.3-3.5-3.1-2.5-.9-3.9-1.9-3.9-3.9 0-2.5 2.3-3.7 4.6-3.7 1.3 0 2.7.2 3.7.8l-.4 1.1zm5.2 10.1h2v2.1h-2v-2.1z" id="Ready_to__x0D_impress."/><path class="st1" d="M14.5 108.6h10v1.3h-8.5v7.1h7.8v1.3h-7.8v7.7h8.7v1.3h-10.2v-18.7zm28.9 1c-.7-.2-1.4-.3-2-.3-1.8 0-2.5.9-2.5 3.3v.9h3.5v1.2h-3.5v12.6h-1.5v-12.6h-6.2v12.6h-1.5v-12.6h-3v-1.2h3v-1.1c0-2.6 1-4.3 4-4.3.8 0 1.5.1 2.1.3l-.1 1.2c-.7-.2-1.4-.3-2-.3-1.9 0-2.5.9-2.5 3.3v.9h6.2v-1.1c0-2.6 1-4.3 4-4.3.8 0 1.5.1 2.1.3l-.1 1.2zm7.1 18c-3.9 0-6.2-2.9-6.2-7.3s2.3-7.2 6.2-7.2c3.9 0 6.2 2.8 6.2 7.2s-2.3 7.3-6.2 7.3zm0-13.2c-3.2 0-4.7 2.6-4.7 6s1.5 6 4.7 6 4.7-2.6 4.7-6-1.5-6-4.7-6zm16.7.1c-.3-.1-.7-.1-1.1-.1-2.1 0-3.6 1.6-3.6 4.8v8.1h-1.5v-13.8h1.4v2.3h.1c.6-1.7 2-2.6 3.8-2.6.3 0 .7 0 1 .1l-.1 1.2zm1.1-1h2.6v-3.4h1.5v3.4h3.4v1.2h-3.4v9.2c0 1.9.4 2.3 2 2.3.6 0 1 0 1.5-.1v1.2c-.4.1-1.2.2-1.8.2-2.4 0-3.1-1-3.1-3.5v-9.3h-2.6v-1.2zm12.6-5.4v19.3h-1.5v-19.3h1.5zm15.9 12.7h-10.2c.1 3.1 1.9 5.7 5.4 5.7 1.3 0 2.7-.2 3.7-.7l.3 1.2c-1.1.4-2.6.7-4 .7-4.5 0-6.8-3.1-6.8-7.3 0-3.9 2.1-7.1 6.1-7.1 3.9 0 5.6 2.8 5.6 6.7v.8zm-1.3-1.4c0-2.9-1.4-5-4.2-5-3.1 0-4.5 2.5-4.6 5.1h8.9v-.1zm12.7-4.3c-1-.5-2.2-.7-3.3-.7-1.6 0-3.1.6-3.1 2.3 0 1.5 1 2.1 3.1 2.9 2.5.9 4.3 1.9 4.3 4.2 0 2.7-2.2 3.8-4.7 3.8-1.5 0-3.2-.4-4.4-1l.4-1.2c1.2.6 2.8 1 4.1 1 1.9 0 3.1-.7 3.1-2.5 0-1.6-1.4-2.3-3.5-3.1-2.4-.9-3.9-1.9-3.9-3.9 0-2.5 2.3-3.7 4.6-3.7 1.3 0 2.7.2 3.7.8l-.4 1.1zm12.3 0c-1-.5-2.2-.7-3.3-.7-1.6 0-3.1.6-3.1 2.3 0 1.5 1 2.1 3.1 2.9 2.5.9 4.3 1.9 4.3 4.2 0 2.7-2.2 3.8-4.7 3.8-1.5 0-3.2-.4-4.4-1l.4-1.2c1.2.6 2.8 1 4.1 1 1.9 0 3.1-.7 3.1-2.5 0-1.6-1.4-2.3-3.5-3.1-2.4-.9-3.9-1.9-3.9-3.9 0-2.5 2.3-3.7 4.6-3.7 1.3 0 2.7.2 3.7.8l-.4 1.1zm-99 31.5c-1-.5-2.2-.7-3.3-.7-1.6 0-3.1.6-3.1 2.3 0 1.5 1 2.1 3.1 2.9 2.5.9 4.3 1.9 4.3 4.2 0 2.7-2.2 3.8-4.7 3.8-1.5 0-3.2-.4-4.4-1l.4-1.2c1.2.6 2.8 1 4.1 1 1.9 0 3.1-.7 3.1-2.5 0-1.6-1.4-2.3-3.5-3.1-2.4-.9-3.9-1.9-3.9-3.9 0-2.5 2.3-3.7 4.6-3.7 1.3 0 2.7.2 3.7.8l-.4 1.1zm16.1 5.6h-10.3c.1 3.1 1.9 5.7 5.4 5.7 1.3 0 2.7-.2 3.7-.7l.3 1.2c-1.1.4-2.6.7-4 .7-4.5 0-6.8-3.1-6.8-7.3 0-3.9 2.1-7.1 6.1-7.1 3.9 0 5.6 2.8 5.6 6.7v.8zm-1.4-1.4c0-2.9-1.4-5-4.2-5-3.1 0-4.5 2.5-4.6 5.1h8.9v-.1zm3.6-5.9h2.6v-3.4h1.5v3.4h3.4v1.2h-3.4v9.2c0 1.9.4 2.3 2 2.3.6 0 1 0 1.5-.1v1.2c-.4.1-1.2.2-1.8.2-2.4 0-3.1-1-3.1-3.5v-9.3h-2.6v-1.2zm27.5 13.9v-2.4h-.1c-.8 1.7-2.6 2.7-4.5 2.7-3.2 0-4.9-2-4.9-5.1v-9.1h1.5v8.5c0 2.6.9 4.4 3.7 4.4 2.2 0 4.2-1.4 4.2-4.8v-8.1h1.5v13.8h-1.4zm8.1 5.1h-1.5v-18.9h1.4v2.7h.1c.8-1.7 2.5-3 4.7-3 3.6 0 5.7 3.2 5.7 7.2 0 4.1-2.1 7.2-5.8 7.2-2.1 0-3.7-1.2-4.6-2.9h-.1v7.7zm4.5-18.1c-2.9 0-4.6 2.5-4.6 6s1.8 6 4.6 6c2.9 0 4.4-2.7 4.4-6s-1.5-6-4.4-6zm-57.7 31.8l-3.5 12.5h-2l-4.1-13.8h1.6l3.5 12.5h.1l3.4-12.5h2.1l3.4 12.5h.1l3.4-12.5h1.6l-4.1 13.8h-2l-3.5-12.5zm14.6-6.4v1.8h-1.7v-1.8h1.7zm-.1 5.2v13.8h-1.5v-13.8h1.5zm3.2 0h2.6v-3.4h1.5v3.4h3.4v1.2h-3.4v9.2c0 1.9.4 2.3 2 2.3.6 0 1 0 1.5-.1v1.2c-.4.1-1.2.2-1.8.2-2.4 0-3.1-1-3.1-3.5v-9.3h-2.6v-1.2zm12.5-5.5v7.8h.1c.8-1.7 2.5-2.7 4.5-2.7 3.2 0 4.9 2 4.9 5.1v9.1h-1.5v-8.5c0-2.6-.9-4.4-3.7-4.4-2.2 0-4.2 1.4-4.2 4.8v8.1h-1.5v-19.3h1.4zm31.5 1.8l-4.2 17.5h-2.2l-4.7-18.7h1.6l4.2 17.3h.1l4.1-17.3h2.2l4.1 17.3h.1l4.2-17.3h1.6l-4.7 18.7h-2.3l-4.1-17.5zm16.6-1.5v1.8h-1.7v-1.8h1.7zm-.1 5.2v13.8h-1.5v-13.8h1.5zm5.2-4.9h9.6v1.3h-8.1v7.1h7.6v1.3h-7.6v9h-1.5v-18.7zm15.1-.3v1.8h-1.7v-1.8h1.7zm-.2 5.2v13.8h-1.5v-13.8h1.5zm-99 33c-1-.5-2.2-.7-3.3-.7-1.6 0-3.1.6-3.1 2.3 0 1.5 1 2.1 3.1 2.9 2.5.9 4.3 1.9 4.3 4.2 0 2.7-2.2 3.8-4.7 3.8-1.5 0-3.2-.4-4.4-1l.4-1.2c1.2.6 2.8 1 4.1 1 1.9 0 3.1-.7 3.1-2.5 0-1.6-1.4-2.3-3.5-3.1-2.4-.9-3.9-1.9-3.9-3.9 0-2.5 2.3-3.7 4.6-3.7 1.3 0 2.7.2 3.7.8l-.4 1.1zm3.3-1.6h2.6v-3.4h1.5v3.4h3.4v1.2h-3.4v9.2c0 1.9.4 2.3 2 2.3.6 0 1 0 1.5-.1v1.2c-.4.1-1.2.2-1.8.2-2.4 0-3.1-1-3.1-3.5v-9.3h-2.6v-1.2zm17.2 1c-.3-.1-.7-.1-1.1-.1-2.1 0-3.6 1.6-3.6 4.8v8.1h-1.5v-13.8h1.4v2.3h.1c.6-1.7 2-2.6 3.8-2.6.3 0 .7 0 1 .1l-.1 1.2zm14 6.3h-10.3c.1 3.1 1.9 5.7 5.4 5.7 1.3 0 2.7-.2 3.7-.7l.3 1.2c-1.1.4-2.6.7-4 .7-4.5 0-6.8-3.1-6.8-7.3 0-3.9 2.1-7.1 6.1-7.1 3.9 0 5.6 2.8 5.6 6.7v.8zm-1.4-1.4c0-2.9-1.4-5-4.2-5-3.1 0-4.5 2.5-4.6 5.1h8.9v-.1zm13.7-1.1c0-2.6-1.3-3.9-3.8-3.9-1.1 0-2.5.3-3.6.8l-.3-1.3c1.1-.4 2.6-.8 4-.8 3.3 0 5.2 1.6 5.2 5v5.9c0 1 .1 2.4.3 3.3h-1.4c-.2-.8-.2-1.8-.3-2.6h-.1c-.7 1.6-2.2 3-4.8 3-2.3 0-4.4-1.3-4.4-4.1 0-3.8 3.9-4.6 9.1-4.6v-.7zm-.6 1.7c-3.8 0-7 .6-7 3.4 0 1.8 1 2.9 3 2.9 3.2 0 4.6-2.5 4.6-5.1v-1.3h-.6zm8.6-6.5v2.4c.8-1.7 2.5-2.7 4.4-2.7 2.2 0 3.6.9 4.2 2.6h.1c.9-1.8 2.5-2.6 4.5-2.6 3.2 0 4.7 2.1 4.7 5.1v9h-1.5v-8.5c0-2.6-.8-4.5-3.6-4.5-1.9 0-3.9 1.3-3.9 4.2v8.8h-1.5v-8.7c0-2.6-.7-4.2-3.4-4.2-2 0-4 1.4-4 4.7v8.2h-1.5v-13.8h1.5zm24.4-5.2v1.8h-1.7v-1.8h1.7zm-.1 5.2v13.8h-1.5v-13.8h1.5zm6.6 0v2.4h.1c.8-1.7 2.6-2.7 4.5-2.7 3.2 0 4.9 2 4.9 5.1v9.1h-1.5v-8.5c0-2.6-.9-4.4-3.7-4.4-2.2 0-4.2 1.4-4.2 4.8v8.1h-1.5v-13.8h1.4zm25.5 13.2c0 3.9-2.5 5.8-6.2 5.8-1.3 0-2.9-.2-4.1-.7l.3-1.2c1.1.5 2.5.7 3.8.7 3.2 0 4.7-1.7 4.7-4.6v-2.3h-.1c-.8 1.6-2.4 2.9-4.7 2.9-3.6 0-5.7-3-5.7-7s2.2-7 5.8-7c2.2 0 3.8 1.2 4.6 2.9h.1v-2.6h1.4v13.1zm-6-.8c2.9 0 4.6-2.4 4.6-5.8s-1.8-5.8-4.6-5.8c-2.9 0-4.5 2.5-4.5 5.8.1 3.3 1.6 5.8 4.5 5.8zm11.2-.7h2v2.1h-2v-2.1z" id="deserves_the_best_possible_copy_3_1_"/><g id="Discover_the__x0D_NEW_PXW-Z150"><path class="st2" d="M14.5 258h4.7c5.7 0 9.3 3.3 9.3 9.4s-3.5 9.4-9.3 9.4h-4.7v-18.8zm1.5 17.4h3c5.3 0 8-2.9 8-8s-2.7-8-8-8h-3v16zm18.3-17.8v1.8h-1.7v-1.8h1.7zm-.1 5.2v13.8h-1.5v-13.8h1.5zm12.3 1.7c-1-.5-2.2-.7-3.3-.7-1.6 0-3.1.6-3.1 2.3 0 1.5 1 2.1 3.1 2.9 2.5.9 4.3 1.9 4.3 4.2 0 2.7-2.2 3.8-4.7 3.8-1.5 0-3.2-.4-4.4-1l.4-1.2c1.2.6 2.8 1 4.1 1 1.9 0 3.1-.7 3.1-2.5 0-1.6-1.4-2.3-3.5-3.1-2.4-.9-3.9-1.9-3.9-3.9 0-2.5 2.3-3.7 4.6-3.7 1.3 0 2.7.2 3.7.8l-.4 1.1zm13.9-.2c-.8-.4-1.7-.5-2.7-.5-3.5 0-5.3 2.7-5.3 6s1.9 6 5.3 6c1 0 1.9-.1 2.8-.5l.3 1.2c-1 .4-2 .5-3.1.5-4.4 0-6.8-3.2-6.8-7.2 0-4.1 2.5-7.2 6.8-7.2 1.2 0 2.2.2 3.1.5l-.4 1.2zm9.5 12.7c-3.9 0-6.2-2.9-6.2-7.3s2.3-7.2 6.2-7.2c3.9 0 6.2 2.8 6.2 7.2s-2.3 7.3-6.2 7.3zm0-13.2c-3.2 0-4.7 2.6-4.7 6s1.5 6 4.7 6 4.7-2.6 4.7-6-1.5-6-4.7-6zm8.3-1h1.6l4.6 12.5h.1l4.5-12.5h1.6l-5.3 13.8h-1.8l-5.3-13.8zm26.1 7.3h-10.2c.1 3.1 1.9 5.7 5.4 5.7 1.3 0 2.7-.2 3.7-.7l.3 1.2c-1.1.4-2.6.7-4 .7-4.5 0-6.8-3.1-6.8-7.3 0-3.9 2.1-7.1 6.1-7.1 3.9 0 5.6 2.8 5.6 6.7v.8zm-1.4-1.4c0-2.9-1.4-5-4.2-5-3.1 0-4.5 2.5-4.6 5.1h8.9v-.1zm11.8-4.9c-.3-.1-.7-.1-1.1-.1-2.1 0-3.6 1.6-3.6 4.8v8.1h-1.5v-13.8h1.4v2.3h.1c.6-1.7 2-2.6 3.8-2.6.3 0 .7 0 1 .1l-.1 1.2zm8.3-1h2.6v-3.4h1.5v3.4h3.4v1.2h-3.4v9.2c0 1.9.4 2.3 2 2.3.6 0 1 0 1.5-.1v1.2c-.4.1-1.2.2-1.8.2-2.4 0-3.1-1-3.1-3.5v-9.3h-2.7v-1.2zm12.5-5.4v7.8h.1c.8-1.7 2.5-2.7 4.5-2.7 3.2 0 4.9 2 4.9 5.1v9.1h-1.5v-8.5c0-2.6-.9-4.4-3.7-4.4-2.2 0-4.2 1.4-4.2 4.8v8.1h-1.6v-19.3h1.5zm25.2 12.7h-10.2c.1 3.1 1.9 5.7 5.4 5.7 1.3 0 2.7-.2 3.7-.7l.3 1.2c-1.1.4-2.6.7-4 .7-4.5 0-6.8-3.1-6.8-7.3 0-3.9 2.1-7.1 6.1-7.1 3.9 0 5.6 2.8 5.6 6.7v.8zm-1.4-1.4c0-2.9-1.4-5-4.2-5-3.1 0-4.5 2.5-4.6 5.1h8.9v-.1zm-133.2 37.8l.1-17.1h1.4v18.7h-2.3l-9.3-17.2h-.1v17.2h-1.4v-18.7h2.4l9.2 17.1zm6.9-17.1h10v1.3h-8.4v7.1h7.8v1.3h-7.8v7.7h8.7v1.3h-10.3v-18.7zm24.1 1.2l-4.1 17.5h-2.2l-4.8-18.7h1.6l4.2 17.3h.1l4.1-17.3h2.4l4.1 17.3h.1l4.2-17.3h1.6l-4.7 18.7h-2.2l-4.4-17.5z"/><path class="st0" d="M79.5 289.4h5.6c3.1 0 6.1 1.1 6.1 5.1 0 4.2-2.9 5.4-6.1 5.4h-4.1v8.2h-1.5v-18.7zm1.5 9.2h4c2.4 0 4.7-.7 4.7-4s-2.3-3.9-4.9-3.9h-3.8v7.9zm18.7-.2l-5.9-9h1.8l5.1 7.9 5.2-7.9h1.7l-6 9 6.4 9.7h-1.8l-5.6-8.5-5.6 8.5h-1.8l6.5-9.7zm21.1-7.8l-4.2 17.5h-2.2l-4.7-18.7h1.6l4.2 17.3h.1l4.1-17.3h2.4l4.1 17.3h.1l4.2-17.3h1.6l-4.7 18.7h-2.4l-4.2-17.5zm14.6 9h6.1v1.3h-6.1v-1.3zm20.1-8.9h-9.7v-1.3h11.5v1.3l-10.6 16.1h10.8v1.3h-12.6v-1.3l10.6-16.1zm10.1 17.4h-1.5v-17.2l-4 2.8-.7-1.1 4.6-3.1h1.7v18.6zm9.2-10.1c-1.3 0-2.4.1-3.8.4l.4-9h9.3v1.3h-7.9l-.3 6.2c1-.2 2-.2 2.6-.2 3.6 0 6.7 1.8 6.7 5.6 0 4-2.9 6.1-6.6 6.1-1.8 0-3.4-.3-4.9-1l.5-1.3c1.3.6 2.8 1 4.4 1 2.9 0 5.1-1.5 5.1-4.7-.1-3.2-2.8-4.4-5.5-4.4zm23.2.8c0 5.7-2 9.6-6.5 9.6-4.6 0-6.5-3.9-6.5-9.6s2-9.7 6.5-9.7 6.5 4 6.5 9.7zm-11.5 0c0 5 1.4 8.3 5 8.3 3.5 0 5-3.4 5-8.3 0-5-1.5-8.4-5-8.4-3.6 0-5 3.4-5 8.4z"/></g><path class="st3" d="M12 396h115v43h-115z" id="Layer_6"/><g id="Layer_5"><path class="st4" d="M28.2 420.5v-9.8h2v8.2h5v1.7h-7zm12.7-2.4l1.9.3c-.2.7-.6 1.3-1.2 1.7-.5.4-1.2.6-2 .6-1.3 0-2.2-.4-2.8-1.3-.5-.7-.7-1.6-.7-2.6 0-1.3.3-2.3.9-3 .6-.7 1.4-1.1 2.4-1.1 1.1 0 1.9.4 2.6 1.1s.9 1.9.9 3.4h-4.8c0 .6.2 1.1.5 1.4.3.3.7.5 1.1.5.3 0 .6-.1.8-.3.1-.1.3-.3.4-.7zm.1-2.1c0-.6-.2-1-.4-1.3s-.6-.5-1-.5-.8.2-1 .5c-.3.3-.4.8-.4 1.3h2.8zm4.9-.8l-1.7-.3c.2-.7.5-1.3 1-1.6.5-.4 1.2-.5 2.1-.5.9 0 1.5.1 1.9.3s.7.5.9.8c.2.3.3.9.3 1.8v2.4c0 .7 0 1.2.1 1.5s.2.7.3 1h-1.9c-.1-.1-.1-.3-.2-.6 0-.1-.1-.2-.1-.2-.3.3-.7.6-1.1.8-.4.2-.8.3-1.2.3-.7 0-1.3-.2-1.8-.6s-.6-1-.6-1.6c0-.4.1-.8.3-1.2.2-.3.5-.6.8-.8l1.5-.5c.9-.2 1.5-.3 1.9-.5v-.2c0-.4-.1-.7-.3-.8s-.5-.2-1-.2c-.3 0-.6.1-.8.2-.1-.1-.3.1-.4.5zm2.6 1.6c-.2.1-.6.2-1.2.3-.5.1-.9.2-1 .4-.3.2-.4.4-.4.7 0 .3.1.5.3.7s.5.3.8.3c.3 0 .7-.1 1-.4.2-.2.4-.4.5-.7.1-.2.1-.5.1-1v-.3zm5.6 3.7h-1.9v-7.6h1.8v1.1c.3-.5.6-.8.8-1 .2-.2.5-.2.8-.2.4 0 .9.1 1.3.4l-.6 1.8c-.3-.2-.6-.3-.9-.3-.3 0-.5.1-.7.2s-.3.4-.4.8c-.1.4-.2 1.3-.2 2.6v2.2zm10.2 0h-1.9v-3.9c0-.8 0-1.4-.1-1.6s-.2-.4-.4-.6-.4-.2-.7-.2c-.3 0-.6.1-.9.3s-.4.4-.5.8c-.1.3-.1.9-.1 1.8v3.5h-1.9v-7.6h1.8v1.1c.6-.9 1.4-1.3 2.4-1.3.4 0 .8.1 1.2.2s.6.4.8.6c.2.2.3.5.4.8.1.3.1.8.1 1.4v4.7zm5.8 0v-9.9h3l1.8 6.8 1.8-6.8h3v9.9h-1.9v-7.8l-2 7.8h-1.8l-2-7.8v7.8h-1.9zm11.2-3.9c0-.7.2-1.3.5-1.9s.8-1.1 1.3-1.4 1.2-.5 1.9-.5c1.1 0 2 .4 2.7 1.1s1.1 1.7 1.1 2.8c0 1.2-.4 2.1-1.1 2.9-.7.8-1.6 1.1-2.7 1.1-.7 0-1.3-.2-1.9-.5-.6-.3-1.1-.8-1.4-1.4s-.4-1.3-.4-2.2zm2 .1c0 .8.2 1.3.5 1.7.3.4.8.6 1.3.6s.9-.2 1.3-.6c.3-.4.5-1 .5-1.8 0-.7-.2-1.3-.5-1.7-.3-.4-.8-.6-1.3-.6s-.9.2-1.3.6c-.3.5-.5 1-.5 1.8zm8.9 3.8h-1.9v-7.6h1.7v1.1c.3-.5.6-.8.8-1 .2-.2.5-.2.8-.2.4 0 .9.1 1.3.4l-.6 1.8c-.3-.2-.6-.3-.9-.3-.3 0-.5.1-.7.2s-.3.4-.4.8c-.1.4-.2 1.3-.2 2.6v2.2zm7.8-2.4l1.9.3c-.2.7-.6 1.3-1.2 1.7-.5.4-1.2.6-2 .6-1.3 0-2.2-.4-2.8-1.3-.5-.7-.7-1.6-.7-2.6 0-1.3.3-2.3.9-3 .6-.7 1.4-1.1 2.4-1.1 1.1 0 1.9.4 2.6 1.1s.9 1.9.9 3.4h-4.8c0 .6.2 1.1.5 1.4.3.3.7.5 1.1.5.3 0 .6-.1.8-.3.1-.1.3-.3.4-.7zm.1-2.1c0-.6-.2-1-.4-1.3s-.6-.5-1-.5-.8.2-1 .5c-.3.3-.4.8-.4 1.3h2.8z"/><path class="st5" d="M109.5 417.4l-1.6-2.7h.9l1.8 2.6-1.8 2.7h-.9l1.6-2.6z"/><path class="st6" d="M39 362.8c-2.5 0-4.9-.8-6.5-2.1-1.2-1.1-1.8-2.4-1.8-3.9s.6-2.8 1.8-3.9c1.5-1.3 4.1-2.1 6.5-2.1 2.7 0 4.9.7 6.5 2.1 1.2 1.1 1.7 2.4 1.7 3.9 0 1.4-.6 2.9-1.7 3.9-1.5 1.3-3.9 2.1-6.5 2.1v-1.5c1.4 0 2.6-.5 3.5-1.3.9-.9 1.3-1.8 1.3-3.1s-.4-2.3-1.3-3.1c-.9-.8-2.1-1.3-3.5-1.3-1.3 0-2.6.5-3.5 1.3-.8.8-1.3 1.9-1.3 3.1s.4 2.3 1.3 3.1c.9.9 2.1 1.3 3.5 1.3v1.5zm-18.6-12c-1.4 0-2.9.3-4.2.8-1.2.5-2.2 1.4-2.2 2.8 0 1.3.8 2 .8 1.9.4.3.9.9 2.4 1.2.7.1 2.1.4 3.5.5s2.8.3 3.4.4c.4.1 1.2.3 1.2 1.1s-.8 1.1-.9 1.2-1.1.5-2.8.5c-1.3 0-2.8-.4-3.3-.6-.6-.2-1.3-.5-1.9-1.3-.2-.2-.4-.7-.4-1.2h-1.6v4.2h1.7v-.6c0-.1.1-.3.4-.2.4.2 1.4.6 2.5.8.9.2 1.5.3 2.6.3 1.8 0 2.8-.3 3.5-.5.7-.2 1.4-.5 2.1-1 .3-.3 1.1-1 1.1-2.2 0-1.2-.7-1.9-.9-2.1-.3-.3-.7-.6-1.1-.8s-.9-.4-1.4-.5c-.9-.2-2.9-.5-3.8-.6-1-.1-2.7-.3-3.4-.5-.2-.1-.6-.3-.6-.8 0-.4.2-.7.6-.9.6-.4 1.9-.6 3.2-.6 1.5 0 2.8.3 3.7.7.3.1.6.3.9.5.3.2.7.7.9 1.4h1.4v-3.7h-1.5v.4c0 .1-.1.3-.4.2-1.1 0-3.1-.8-5.5-.8zm28.6.7v1.4h1.2c.9 0 .9.5.9.9v6.2c0 .4 0 .9-.5.9h-1.5v1.4h6.3v-1.4h-1.5c-.6 0-.6-.3-.7-.9v-5.3l8.7 7.5h2.2l-.1-8.5c0-.6 0-.9.7-.9h1.4v-1.4h-6.5v1.4h1.4c.6 0 .8.3.8.9l.1 4.5-7.5-6.6h-5.4zm23.1 9.2v1.4h7.5v-1.4h-1.8c-.1 0-.3-.1-.3-.3v-2.4l.1-.2c.1-.1 4-4.5 4.2-4.6.4-.4.6-.5 1.1-.5h1.4v-1.4h-6.3v1.4h.9c.3 0 .4.3.2.4l-2.6 3h-.1l-2.6-3c-.2-.2 0-.4.2-.4h.9v-1.4h-7.6v1.4h1.3c.6 0 1 .4 1.2.6.2.2 4 4.5 4.1 4.5s.1.1.1.2v2.4l-.3.3h-1.6z" id="Layer_5_1_"/></g></svg>